<svg xmlns="http://www.w3.org/2000/svg" width="1200" height="720" viewBox="0 0 1200 720">
  <defs>
    <linearGradient id="a" x1="0%" y1="0%" x2="100%" y2="100%">
      <stop offset="0%" stop-color="#052e16" />
      <stop offset="100%" stop-color="#166534" />
    </linearGradient>
    <linearGradient id="b" x1="0%" y1="0%" x2="0%" y2="100%">
      <stop offset="0%" stop-color="rgba(17, 24, 39, 0.85)" />
      <stop offset="100%" stop-color="rgba(15, 118, 110, 0.45)" />
    </linearGradient>
  </defs>
  <rect width="1200" height="720" rx="36" fill="url(#a)" />
  <rect x="132" y="132" width="936" height="456" rx="28" fill="rgba(6, 78, 59, 0.8)" stroke="rgba(94, 234, 212, 0.3)" />
  <g font-family="Inter, -apple-system, BlinkMacSystemFont, 'Segoe UI', sans-serif" fill="rgba(226, 252, 236, 0.9)">
    <text x="176" y="200" font-size="20" font-weight="600" letter-spacing="4">BARMM ELECTION COMMAND</text>
    <text x="176" y="236" font-size="14" opacity="0.7">Live status · Field teams · Logistics</text>
  </g>
  <rect x="176" y="268" width="328" height="248" rx="20" fill="rgba(12, 74, 110, 0.4)" stroke="rgba(125, 211, 252, 0.35)" />
  <rect x="520" y="268" width="208" height="248" rx="20" fill="rgba(8, 51, 68, 0.45)" stroke="rgba(16, 185, 129, 0.35)" />
  <rect x="744" y="268" width="256" height="248" rx="20" fill="rgba(5, 46, 22, 0.4)" stroke="rgba(74, 222, 128, 0.4)" />
  <g font-family="Inter, -apple-system, BlinkMacSystemFont, 'Segoe UI', sans-serif" font-weight="600" fill="rgba(240, 253, 244, 0.92)">
    <text x="200" y="308" font-size="16">Field deployment</text>
    <text x="544" y="308" font-size="16">Status mix</text>
    <text x="768" y="308" font-size="16">Priority calls</text>
  </g>
  <rect x="200" y="332" width="280" height="30" rx="15" fill="rgba(8, 145, 178, 0.65)" />
  <rect x="200" y="372" width="220" height="30" rx="15" fill="rgba(59, 130, 246, 0.6)" />
  <rect x="200" y="412" width="240" height="30" rx="15" fill="rgba(99, 102, 241, 0.55)" />
  <rect x="200" y="452" width="180" height="30" rx="15" fill="rgba(129, 140, 248, 0.5)" />
  <g font-family="Inter, -apple-system, BlinkMacSystemFont, 'Segoe UI', sans-serif" fill="rgba(240, 253, 244, 0.8)" font-size="13">
    <text x="212" y="352">Northern Basilan · 28 teams on duty</text>
    <text x="212" y="392">Lanao del Sur · 21 teams</text>
    <text x="212" y="432">Maguindanao · 24 teams</text>
    <text x="212" y="472">Tawi-Tawi · 16 teams</text>
  </g>
  <circle cx="624" cy="404" r="84" fill="rgba(16, 185, 129, 0.25)" stroke="rgba(16, 185, 129, 0.6)" stroke-width="12" />
  <circle cx="624" cy="404" r="52" fill="rgba(6, 78, 59, 0.65)" />
  <text x="624" y="412" text-anchor="middle" font-family="Inter, -apple-system, BlinkMacSystemFont, 'Segoe UI', sans-serif" font-size="24" font-weight="600" fill="rgba(240, 253, 244, 0.9)">82%</text>
  <g font-family="Inter, -apple-system, BlinkMacSystemFont, 'Segoe UI', sans-serif" fill="rgba(240, 253, 244, 0.82)" font-size="12">
    <text x="560" y="470">Ready</text>
    <text x="676" y="470">In transit</text>
  </g>
  <rect x="772" y="340" width="200" height="52" rx="14" fill="url(#b)" />
  <rect x="772" y="404" width="200" height="52" rx="14" fill="url(#b)" />
  <rect x="772" y="468" width="200" height="52" rx="14" fill="url(#b)" />
  <g fill="rgba(240, 253, 244, 0.9)" font-family="Inter, -apple-system, BlinkMacSystemFont, 'Segoe UI', sans-serif">
    <text x="792" y="372" font-size="14" font-weight="600">Polling materials arrival</text>
    <text x="792" y="436" font-size="14" font-weight="600">Power generator dispatch</text>
    <text x="792" y="500" font-size="14" font-weight="600">Security escort routing</text>
    <text x="792" y="352" font-size="11" opacity="0.7">Status: On time</text>
    <text x="792" y="416" font-size="11" opacity="0.7">Status: In progress</text>
    <text x="792" y="480" font-size="11" opacity="0.7">Status: Awaiting confirmation</text>
  </g>
</svg>
