<svg xmlns="http://www.w3.org/2000/svg" width="1200" height="720" viewBox="0 0 1200 720">
  <defs>
    <linearGradient id="a" x1="0%" y1="0%" x2="100%" y2="100%">
      <stop offset="0%" stop-color="#1e1b4b" />
      <stop offset="100%" stop-color="#0f172a" />
    </linearGradient>
    <linearGradient id="b" x1="0%" y1="0%" x2="0%" y2="100%">
      <stop offset="0%" stop-color="rgba(129, 140, 248, 0.25)" />
      <stop offset="100%" stop-color="rgba(37, 99, 235, 0.5)" />
    </linearGradient>
  </defs>
  <rect width="1200" height="720" rx="36" fill="url(#a)" />
  <rect x="150" y="150" width="900" height="420" rx="28" fill="rgba(30, 41, 59, 0.85)" stroke="rgba(129, 140, 248, 0.35)" />
  <g font-family="Inter, -apple-system, BlinkMacSystemFont, 'Segoe UI', sans-serif" fill="rgba(224, 231, 255, 0.92)">
    <text x="192" y="206" font-size="20" font-weight="600" letter-spacing="4">TELEGRAM BOT SUMMARY</text>
    <text x="192" y="236" font-size="13" opacity="0.7">Daily outbound messages · Source queues · Delivery</text>
  </g>
  <rect x="192" y="268" width="240" height="252" rx="22" fill="rgba(17, 24, 39, 0.7)" />
  <rect x="452" y="268" width="256" height="252" rx="22" fill="rgba(31, 41, 55, 0.7)" />
  <rect x="728" y="268" width="240" height="252" rx="22" fill="rgba(17, 24, 39, 0.7)" />
  <g font-family="Inter, -apple-system, BlinkMacSystemFont, 'Segoe UI', sans-serif" fill="rgba(224, 231, 255, 0.85)" font-size="14">
    <text x="212" y="304" font-weight="600">Queue · Offers</text>
    <text x="472" y="304" font-weight="600">Queue · Alerts</text>
    <text x="748" y="304" font-weight="600">Delivery</text>
  </g>
  <rect x="212" y="328" width="200" height="32" rx="16" fill="rgba(96, 165, 250, 0.45)" />
  <rect x="212" y="368" width="200" height="32" rx="16" fill="rgba(96, 165, 250, 0.3)" />
  <rect x="212" y="408" width="200" height="32" rx="16" fill="rgba(96, 165, 250, 0.3)" />
  <g font-family="Inter, -apple-system, BlinkMacSystemFont, 'Segoe UI', sans-serif" fill="rgba(224, 231, 255, 0.88)" font-size="12">
    <text x="228" y="348">08:00 · Daily summary</text>
    <text x="228" y="388">10:00 · Auction dump</text>
    <text x="228" y="428">15:00 · Price watch</text>
  </g>
  <rect x="472" y="328" width="216" height="72" rx="18" fill="rgba(67, 56, 202, 0.45)" />
  <rect x="472" y="412" width="216" height="72" rx="18" fill="rgba(79, 70, 229, 0.45)" />
  <g font-family="Inter, -apple-system, BlinkMacSystemFont, 'Segoe UI', sans-serif" fill="rgba(224, 231, 255, 0.9)">
    <text x="492" y="360" font-size="13" font-weight="600">Failed alerts · 0</text>
    <text x="492" y="392" font-size="12" opacity="0.75">Last error: 3 days ago</text>
    <text x="492" y="444" font-size="13" font-weight="600">Success rate · 99.2%</text>
    <text x="492" y="476" font-size="12" opacity="0.75">Webhook stable</text>
  </g>
  <rect x="748" y="328" width="200" height="98" rx="18" fill="url(#b)" />
  <rect x="748" y="444" width="200" height="64" rx="18" fill="rgba(99, 102, 241, 0.35)" />
  <g font-family="Inter, -apple-system, BlinkMacSystemFont, 'Segoe UI', sans-serif" fill="rgba(224, 231, 255, 0.9)">
    <text x="768" y="364" font-size="13" font-weight="600">Queued: 118 recipients</text>
    <text x="768" y="392" font-size="12" opacity="0.8">EU buyers: 48 · APAC: 52 · MEA: 18</text>
    <text x="768" y="460" font-size="12" font-weight="600">Next send in 01:12</text>
  </g>
</svg>
