<svg xmlns="http://www.w3.org/2000/svg" width="1200" height="720" viewBox="0 0 1200 720">
  <defs>
    <linearGradient id="a" x1="0%" y1="0%" x2="100%" y2="100%">
      <stop offset="0%" stop-color="#111827" />
      <stop offset="50%" stop-color="#1f2937" />
      <stop offset="100%" stop-color="#4338ca" />
    </linearGradient>
    <linearGradient id="b" x1="0%" y1="0%" x2="100%" y2="0%">
      <stop offset="0%" stop-color="rgba(30, 58, 138, 0.65)" />
      <stop offset="100%" stop-color="rgba(79, 70, 229, 0.45)" />
    </linearGradient>
    <linearGradient id="c" x1="0%" y1="0%" x2="0%" y2="100%">
      <stop offset="0%" stop-color="rgba(96, 165, 250, 0.85)" />
      <stop offset="100%" stop-color="rgba(129, 140, 248, 0.6)" />
    </linearGradient>
  </defs>
  <rect width="1200" height="720" rx="36" fill="url(#a)" />
  <rect x="136" y="136" width="928" height="448" rx="28" fill="rgba(30, 41, 59, 0.85)" stroke="rgba(148, 163, 184, 0.4)" />
  <g font-family="Inter, -apple-system, BlinkMacSystemFont, 'Segoe UI', sans-serif" fill="rgba(226, 232, 240, 0.9)">
    <text x="184" y="200" font-size="20" font-weight="600" letter-spacing="4">GLOBAL CAR TRADING OVERVIEW</text>
    <text x="184" y="228" font-size="13" opacity="0.7">Inventory · Offers · Auction signals · Telegram sync</text>
  </g>
  <rect x="184" y="260" width="376" height="296" rx="22" fill="rgba(17, 24, 39, 0.7)" />
  <rect x="600" y="260" width="312" height="136" rx="22" fill="rgba(30, 64, 175, 0.4)" />
  <rect x="600" y="420" width="312" height="136" rx="22" fill="rgba(30, 64, 175, 0.4)" />
  <rect x="952" y="260" width="96" height="296" rx="22" fill="rgba(17, 24, 39, 0.7)" />
  <g font-family="Inter, -apple-system, BlinkMacSystemFont, 'Segoe UI', sans-serif" fill="rgba(226, 232, 240, 0.85)" font-size="14">
    <text x="208" y="296" font-weight="600">Live stock</text>
    <text x="208" y="324" opacity="0.75">Total vehicles: 421</text>
  </g>
  <rect x="208" y="344" width="328" height="54" rx="14" fill="rgba(30, 64, 175, 0.5)" />
  <rect x="208" y="406" width="328" height="54" rx="14" fill="rgba(37, 99, 235, 0.45)" />
  <rect x="208" y="468" width="328" height="54" rx="14" fill="rgba(59, 130, 246, 0.4)" />
  <g font-family="Inter, -apple-system, BlinkMacSystemFont, 'Segoe UI', sans-serif" fill="rgba(226, 232, 240, 0.88)" font-size="13">
    <text x="224" y="376">EU inbound · 64 units</text>
    <text x="224" y="438">US auction · 32 units</text>
    <text x="224" y="500">SEA resale · 45 units</text>
  </g>
  <g font-family="Inter, -apple-system, BlinkMacSystemFont, 'Segoe UI', sans-serif" fill="rgba(226, 232, 240, 0.88)">
    <text x="624" y="296" font-size="14" font-weight="600">Offer velocity</text>
    <text x="624" y="456" font-size="14" font-weight="600">Telegram digests</text>
  </g>
  <rect x="624" y="328" width="264" height="26" rx="13" fill="url(#b)" />
  <rect x="624" y="360" width="264" height="26" rx="13" fill="url(#b)" />
  <rect x="624" y="492" width="264" height="26" rx="13" fill="url(#c)" />
  <rect x="624" y="524" width="264" height="26" rx="13" fill="url(#c)" />
  <g font-family="Inter, -apple-system, BlinkMacSystemFont, 'Segoe UI', sans-serif" fill="rgba(226, 232, 240, 0.9)" font-size="12">
    <text x="640" y="345">Average offers: 38 / day</text>
    <text x="640" y="377">Closed last 24h: 11</text>
    <text x="640" y="509">Telegram: 08:00 send complete</text>
    <text x="640" y="541">Telegram: 14:00 send scheduled</text>
  </g>
  <g font-family="Inter, -apple-system, BlinkMacSystemFont, 'Segoe UI', sans-serif" font-weight="600" fill="rgba(165, 180, 252, 0.9)" font-size="11" letter-spacing="5">
    <text transform="rotate(-90)" x="-536" y="1000">UPDATES</text>
  </g>
  <g font-family="Inter, -apple-system, BlinkMacSystemFont, 'Segoe UI', sans-serif" fill="rgba(226, 232, 240, 0.7)" font-size="11">
    <text x="968" y="304">Tasks</text>
    <text x="968" y="336">Vet EU customs</text>
    <text x="968" y="368">Sync Manila docs</text>
    <text x="968" y="400">Push US pricing</text>
    <text x="968" y="432">Review bots</text>
    <text x="968" y="464">Update feed</text>
  </g>
</svg>
