<svg xmlns="http://www.w3.org/2000/svg" width="1200" height="720" viewBox="0 0 1200 720">
  <defs>
    <linearGradient id="a" x1="0%" y1="0%" x2="100%" y2="100%">
      <stop offset="0%" stop-color="#0f172a" />
      <stop offset="50%" stop-color="#1d4ed8" />
      <stop offset="100%" stop-color="#1f2937" />
    </linearGradient>
    <linearGradient id="b" x1="0%" y1="0%" x2="100%" y2="0%">
      <stop offset="0%" stop-color="rgba(37, 99, 235, 0.75)" />
      <stop offset="100%" stop-color="rgba(59, 130, 246, 0.55)" />
    </linearGradient>
  </defs>
  <rect width="1200" height="720" rx="36" fill="url(#a)" />
  <rect x="144" y="144" width="912" height="432" rx="28" fill="rgba(15, 23, 42, 0.78)" stroke="rgba(191, 219, 254, 0.4)" />
  <g font-family="Inter, -apple-system, BlinkMacSystemFont, 'Segoe UI', sans-serif" fill="rgba(226, 232, 240, 0.92)">
    <text x="188" y="204" font-size="20" font-weight="600" letter-spacing="4">ELECTION READINESS TOOLKIT</text>
    <text x="188" y="234" font-size="13" opacity="0.7">Live signals · Risk heat map · AI summary</text>
  </g>
  <rect x="188" y="264" width="320" height="276" rx="22" fill="rgba(30, 64, 175, 0.55)" />
  <rect x="532" y="264" width="484" height="128" rx="22" fill="rgba(15, 23, 42, 0.65)" />
  <rect x="532" y="408" width="484" height="132" rx="22" fill="rgba(15, 23, 42, 0.65)" />
  <circle cx="348" cy="402" r="118" fill="rgba(59, 130, 246, 0.45)" />
  <circle cx="348" cy="402" r="84" fill="rgba(37, 99, 235, 0.7)" />
  <circle cx="348" cy="402" r="52" fill="rgba(30, 41, 59, 0.9)" />
  <text x="348" y="410" text-anchor="middle" font-family="Inter, -apple-system, BlinkMacSystemFont, 'Segoe UI', sans-serif" font-size="26" font-weight="600" fill="rgba(226, 232, 240, 0.92)">92%</text>
  <g font-family="Inter, -apple-system, BlinkMacSystemFont, 'Segoe UI', sans-serif" fill="rgba(226, 232, 240, 0.85)" font-size="14">
    <text x="276" y="328">Logistics readiness</text>
    <text x="436" y="328">Polling stations</text>
    <text x="260" y="480">Communications</text>
    <text x="436" y="480">Support</text>
  </g>
  <rect x="556" y="296" width="184" height="32" rx="16" fill="url(#b)" />
  <rect x="556" y="336" width="184" height="32" rx="16" fill="rgba(37, 99, 235, 0.35)" />
  <rect x="748" y="296" width="184" height="32" rx="16" fill="rgba(96, 165, 250, 0.45)" />
  <rect x="748" y="336" width="184" height="32" rx="16" fill="rgba(59, 130, 246, 0.3)" />
  <g font-family="Inter, -apple-system, BlinkMacSystemFont, 'Segoe UI', sans-serif" fill="rgba(226, 232, 240, 0.9)" font-size="12">
    <text x="572" y="316">Ready: 128 / 140</text>
    <text x="572" y="356">En route: 12</text>
    <text x="764" y="316">Stations briefed: 93%</text>
    <text x="764" y="356">Equipment pending: 7%</text>
  </g>
  <g font-family="Inter, -apple-system, BlinkMacSystemFont, 'Segoe UI', sans-serif" fill="rgba(226, 232, 240, 0.92)">
    <text x="556" y="440" font-size="14" font-weight="600">AI summary</text>
  </g>
  <text x="556" y="468" font-family="Inter, -apple-system, BlinkMacSystemFont, 'Segoe UI', sans-serif" font-size="13" fill="rgba(226, 232, 240, 0.78)" xml:space="preserve">
    Logistics are on track with 12 deliveries outstanding. Communications teams should re-run connectivity tests
    for rural stations and confirm radio backup. No red flags recorded overnight.</text>
</svg>
