<svg xmlns="http://www.w3.org/2000/svg" width="1200" height="720" viewBox="0 0 1200 720">
  <defs>
    <linearGradient id="a" x1="0%" y1="0%" x2="100%" y2="0%">
      <stop offset="0%" stop-color="#0b1120" />
      <stop offset="100%" stop-color="#1d4ed8" />
    </linearGradient>
    <linearGradient id="b" x1="0%" y1="0%" x2="100%" y2="100%">
      <stop offset="0%" stop-color="rgba(30, 41, 59, 0.9)" />
      <stop offset="100%" stop-color="rgba(51, 65, 85, 0.6)" />
    </linearGradient>
  </defs>
  <rect width="1200" height="720" rx="36" fill="url(#a)" />
  <rect x="140" y="140" width="920" height="440" rx="28" fill="rgba(15, 23, 42, 0.75)" stroke="rgba(148, 163, 184, 0.4)" />
  <g fill="rgba(226, 232, 240, 0.9)" font-family="Inter, -apple-system, BlinkMacSystemFont, 'Segoe UI', sans-serif">
    <text x="180" y="200" font-size="20" font-weight="600" letter-spacing="4">FILTER ACTIVE TENDERS</text>
  </g>
  <rect x="180" y="228" width="256" height="44" rx="12" fill="rgba(15, 23, 42, 0.9)" stroke="rgba(148, 163, 184, 0.5)" />
  <rect x="456" y="228" width="256" height="44" rx="12" fill="rgba(15, 23, 42, 0.9)" stroke="rgba(148, 163, 184, 0.5)" />
  <rect x="732" y="228" width="256" height="44" rx="12" fill="rgba(15, 23, 42, 0.9)" stroke="rgba(148, 163, 184, 0.5)" />
  <g fill="rgba(186, 197, 213, 0.9)" font-family="Inter, -apple-system, BlinkMacSystemFont, 'Segoe UI', sans-serif" font-size="14">
    <text x="204" y="256">Status · Evaluating</text>
    <text x="480" y="256">Owner · Noraini</text>
    <text x="756" y="256">Due · This month</text>
  </g>
  <rect x="180" y="300" width="808" height="60" rx="16" fill="rgba(15, 23, 42, 0.35)" />
  <rect x="180" y="372" width="808" height="60" rx="16" fill="rgba(15, 23, 42, 0.35)" />
  <rect x="180" y="444" width="808" height="60" rx="16" fill="rgba(15, 23, 42, 0.35)" />
  <rect x="180" y="516" width="808" height="60" rx="16" fill="rgba(15, 23, 42, 0.35)" />
  <g fill="rgba(226, 232, 240, 0.82)" font-family="Inter, -apple-system, BlinkMacSystemFont, 'Segoe UI', sans-serif" font-size="15">
    <text x="204" y="338">Project #4521 · Johor water treatment upgrade</text>
    <text x="204" y="410">Project #4516 · Sabah fibre rollout</text>
    <text x="204" y="482">Project #4509 · Klang logistics hub</text>
    <text x="204" y="554">Project #4498 · Port Klang automation</text>
  </g>
  <rect x="780" y="320" width="172" height="24" rx="12" fill="url(#b)" />
  <rect x="780" y="392" width="172" height="24" rx="12" fill="url(#b)" />
  <rect x="780" y="464" width="172" height="24" rx="12" fill="url(#b)" />
  <rect x="780" y="536" width="172" height="24" rx="12" fill="url(#b)" />
  <g fill="rgba(248, 250, 252, 0.88)" font-family="Inter, -apple-system, BlinkMacSystemFont, 'Segoe UI', sans-serif" font-size="12" font-weight="600">
    <text x="792" y="336">RM 2.1M</text>
    <text x="792" y="408">RM 5.4M</text>
    <text x="792" y="480">RM 1.9M</text>
    <text x="792" y="552">RM 3.3M</text>
  </g>
</svg>
